<svg width="512" height="512" viewBox="0 0 512 512" fill="none" xmlns="http://www.w3.org/2000/svg">
<circle cx="256" cy="256" r="256" fill="black"/>
<path d="M342.15 211.65C337.483 211.65 333.4 209.9 329.9 206.4C326.633 202.9 325 198.817 325 194.15C325 189.483 326.633 185.517 329.9 182.25C333.4 178.75 337.483 177 342.15 177C346.817 177 350.9 178.75 354.4 182.25C357.9 185.517 359.65 189.483 359.65 194.15C359.65 198.817 357.9 202.9 354.4 206.4C350.9 209.9 346.817 211.65 342.15 211.65ZM342.15 335.2C337.483 335.2 333.4 333.45 329.9 329.95C326.633 326.45 325 322.367 325 317.7C325 313.033 326.633 309.067 329.9 305.8C333.4 302.3 337.483 300.55 342.15 300.55C346.817 300.55 350.9 302.3 354.4 305.8C357.9 309.067 359.65 313.033 359.65 317.7C359.65 322.367 357.9 326.45 354.4 329.95C350.9 333.45 346.817 335.2 342.15 335.2Z" fill="white"/>
<path d="M382.1 386.85C411.967 344.15 426.9 300.4 426.9 255.6C426.9 234.833 423.05 213.25 415.35 190.85C407.883 168.45 396.8 146.633 382.1 125.4C380.7 123.533 380 121.667 380 119.8C380 117.233 380.933 115.017 382.8 113.15C384.9 111.05 387.233 110 389.8 110C391.2 110 392.6 110.35 394 111.05C395.633 111.75 396.8 112.683 397.5 113.85C431.1 159.117 447.9 206.483 447.9 255.95C447.9 280.683 443.583 305.067 434.95 329.1C426.55 353.133 414.067 376.233 397.5 398.4C396.8 399.567 395.633 400.5 394 401.2C392.6 401.9 391.2 402.25 389.8 402.25C387.233 402.25 384.9 401.2 382.8 399.1C380.933 397.233 380 395.017 380 392.45C380 390.583 380.7 388.717 382.1 386.85Z" fill="white"/>
<path d="M292.5 344.35C295.3 344.35 297.75 345.4 299.85 347.5C301.95 349.367 303 351.817 303 354.85C303 357.65 301.833 360.217 299.5 362.55C288.3 373.983 273.717 382.967 255.75 389.5C238.017 395.8 220.05 398.95 201.85 398.95C175.95 398.95 152.617 393 131.85 381.1C111.083 368.967 94.75 352.167 82.85 330.7C70.95 309.233 65 284.85 65 257.55C65 230.25 70.95 205.633 82.85 183.7C94.75 161.533 111.083 144.267 131.85 131.9C152.617 119.3 175.95 113 201.85 113C242.217 113 273.717 125.833 296.35 151.5C298.683 154.067 299.85 156.75 299.85 159.55C299.85 162.35 298.8 164.8 296.7 166.9C294.6 169 292.033 170.05 289 170.05C285.967 170.05 283.517 169 281.65 166.9C271.85 155.467 260.3 147.3 247 142.4C233.7 137.267 218.65 134.7 201.85 134.7C182.017 134.7 163.817 139.133 147.25 148C130.917 156.633 117.5 168.883 107 184.75C96.7333 200.383 90.3167 218.467 87.75 239H222.15C225.183 239 227.633 240.05 229.5 242.15C231.6 244.017 232.65 246.467 232.65 249.5C232.65 252.533 231.6 255.1 229.5 257.2C227.633 259.067 225.183 260 222.15 260H86.7C86.9333 282.867 92.0667 303.283 102.1 321.25C112.133 338.983 125.783 352.75 143.05 362.55C160.55 372.35 180.15 377.25 201.85 377.25C220.283 377.25 236.85 374.8 251.55 369.9C266.25 365 277.45 357.533 285.15 347.5C287.017 345.4 289.467 344.35 292.5 344.35Z" fill="white"/>
</svg>
