<svg width="512" height="512" viewBox="0 0 512 512" fill="none" xmlns="http://www.w3.org/2000/svg">
<circle cx="256" cy="256" r="256" fill="black"/>
<path d="M440.612 181.65C440.812 181.55 441.762 181.5 443.462 181.5H446.013L446.763 182.1C448.363 183.8 450.312 186.7 452.612 190.8C455.912 197 458.112 204.1 459.212 212.1C461.012 225.4 459.713 240.6 455.312 257.7C448.913 282 438.813 301.8 425.013 317.1C420.413 322.3 415.612 326.75 410.612 330.45C410.412 330.65 410.213 330.8 410.013 330.9L409.112 331.5H406.562H404.013L403.562 331.05C403.262 330.75 403.112 330.4 403.112 330C403.112 329.7 403.612 329.1 404.612 328.2C407.612 325.4 409.963 323 411.663 321C425.063 306.2 435.162 286.4 441.962 261.6C445.262 249.7 447.462 238.4 448.562 227.7C449.062 221.9 449.112 216.75 448.712 212.25C448.012 201.65 445.363 192.45 440.763 184.65C440.163 183.65 439.863 183.1 439.863 183C439.863 182.4 440.112 181.95 440.612 181.65Z" fill="white"/>
<path d="M356.413 228C357.113 227.8 358.213 227.7 359.713 227.7C362.013 227.8 364.013 228.3 365.713 229.2C367.013 229.9 368.013 230.65 368.713 231.45C369.513 232.15 370.263 233.15 370.963 234.45C371.863 236.35 372.263 238.35 372.163 240.45C372.163 242.45 371.513 245.2 370.213 248.7C370.113 249.2 369.913 249.8 369.613 250.5C364.713 264.1 362.263 273.4 362.263 278.4C362.263 278.8 362.263 279.15 362.263 279.45C362.363 282.85 363.163 285.35 364.663 286.95C365.763 287.95 367.263 288.45 369.163 288.45C371.163 288.45 372.913 288.05 374.413 287.25C377.013 285.95 379.263 283.85 381.163 280.95L382.063 279.45L387.613 257.25C391.513 241.75 393.763 233.55 394.363 232.65C394.463 232.45 394.713 232.15 395.113 231.75C397.313 229.55 399.813 228.8 402.613 229.5C405.013 230.3 406.313 231.85 406.513 234.15C406.513 234.85 404.013 245.3 399.013 265.5C394.113 285.1 391.363 295.8 390.763 297.6C389.763 300.9 388.213 304 386.113 306.9C385.413 308.1 384.613 309.25 383.713 310.35C381.713 312.85 379.563 315 377.263 316.8C372.963 320.4 368.363 322.75 363.463 323.85C361.663 324.35 359.413 324.6 356.713 324.6C354.613 324.6 353.063 324.5 352.063 324.3C345.363 322.8 341.563 319.2 340.663 313.5C340.363 311 340.713 308.55 341.713 306.15C343.313 302.85 346.013 301 349.813 300.6C353.013 300.3 355.213 301.45 356.413 304.05C356.713 304.55 356.913 305.35 357.013 306.45C357.113 309.05 356.163 311.45 354.163 313.65C353.263 314.35 352.563 314.85 352.063 315.15C351.663 315.35 351.413 315.5 351.313 315.6L353.863 317.1C357.963 318.5 362.113 317.7 366.313 314.7C371.513 310.8 375.463 304.3 378.163 295.2C378.363 294.1 378.563 293.35 378.763 292.95V292.35L377.563 292.95C372.763 295.75 367.463 296.4 361.663 294.9C355.063 293.3 351.013 289 349.513 282C349.113 279.4 349.113 276.3 349.513 272.7C349.613 272.4 349.663 272.15 349.663 271.95C350.463 266.95 352.813 259.3 356.713 249C358.513 243.7 359.513 240.3 359.713 238.8C360.213 236.5 359.963 235.2 358.963 234.9C357.763 234.5 356.363 234.75 354.763 235.65C352.663 236.95 351.013 239 349.813 241.8C348.813 243.6 347.713 246.65 346.513 250.95C346.213 251.55 346.013 251.9 345.913 252C345.713 252.2 344.513 252.3 342.313 252.3H339.013L338.563 251.85C338.263 251.55 338.113 251.15 338.113 250.65C338.313 249.05 339.163 246.55 340.663 243.15C341.863 240.55 343.113 238.4 344.413 236.7C345.713 234.9 347.363 233.1 349.363 231.3C351.563 229.6 353.913 228.5 356.413 228Z" fill="white"/>
<path d="M306.817 274.65C310.017 273.85 312.667 274.5 314.767 276.6C315.867 277.6 316.567 279 316.867 280.8C318.267 286.1 317.067 292.9 313.267 301.2C309.767 309 304.517 315.85 297.517 321.75C296.217 322.95 295.267 323.35 294.667 322.95C294.367 322.75 293.867 322.15 293.167 321.15C292.067 319.55 291.617 318.6 291.817 318.3C291.917 318.1 292.517 317.45 293.617 316.35C300.717 310.15 305.617 303.1 308.317 295.2L309.067 293.25L308.167 293.55C306.467 294.15 304.717 294.25 302.917 293.85C301.417 293.55 300.217 293 299.317 292.2C297.517 290.5 296.767 288.2 297.067 285.3C297.767 280.7 300.117 277.45 304.117 275.55C305.017 275.15 305.917 274.85 306.817 274.65Z" fill="white"/>
<path d="M245.037 227.85C248.437 227.35 251.887 227.85 255.387 229.35C258.087 230.55 260.137 232.25 261.537 234.45L262.137 235.2L262.737 234.3C265.237 231.3 268.287 229.25 271.887 228.15C276.287 226.95 280.287 227.75 283.887 230.55C284.587 231.05 285.187 231.6 285.687 232.2C286.887 233.6 287.687 235.25 288.087 237.15C289.087 240.45 288.837 243.7 287.337 246.9C285.737 250.3 283.037 252.2 279.237 252.6C276.037 252.9 273.837 251.75 272.637 249.15C272.337 248.65 272.137 247.85 272.037 246.75C272.037 245.05 272.387 243.5 273.087 242.1C273.887 240.3 275.337 238.85 277.437 237.75C278.337 237.35 278.787 237.05 278.787 236.85C278.387 236.25 277.687 235.7 276.687 235.2C276.187 235 275.437 234.9 274.437 234.9C273.437 234.9 272.687 235 272.187 235.2C269.687 236.6 267.737 239.25 266.337 243.15L257.637 277.8C256.937 280.9 256.787 283.2 257.187 284.7C257.987 287.4 260.137 288.7 263.637 288.6C264.837 288.5 265.987 288.25 267.087 287.85C271.087 286.35 274.387 282.9 276.987 277.5C277.687 276.1 278.237 274.7 278.637 273.3C279.037 272 279.487 271.3 279.987 271.2C280.287 271.1 281.337 271.05 283.137 271.05C285.337 271.05 286.537 271.15 286.737 271.35C287.237 271.75 287.287 272.6 286.887 273.9C286.087 277.2 284.687 280.25 282.687 283.05C277.487 290.65 271.137 294.85 263.637 295.65C263.437 295.65 263.237 295.65 263.037 295.65C257.237 295.95 252.587 294.05 249.087 289.95C248.887 289.85 248.737 289.7 248.637 289.5C248.037 288.8 247.687 288.4 247.587 288.3L246.687 289.35C245.287 290.95 243.887 292.15 242.487 292.95C239.487 294.85 236.537 295.75 233.637 295.65C231.737 295.55 229.837 295.05 227.937 294.15C224.737 292.65 222.637 289.95 221.637 286.05C220.537 281.05 221.437 276.9 224.337 273.6C227.137 270.9 230.187 270.05 233.487 271.05C234.687 271.45 235.637 272.05 236.337 272.85C238.237 274.95 238.337 277.75 236.637 281.25C235.737 283.15 234.337 284.6 232.437 285.6C231.537 286.1 231.037 286.35 230.937 286.35C230.937 286.75 231.687 287.35 233.187 288.15C233.587 288.35 234.287 288.45 235.287 288.45C236.287 288.45 237.037 288.35 237.537 288.15C240.037 286.85 241.937 284.25 243.237 280.35L252.237 244.95C252.437 243.95 252.537 242.55 252.537 240.75C252.537 239.35 252.437 238.4 252.237 237.9C251.037 235.3 248.487 234.35 244.587 235.05C240.887 235.75 237.587 238.25 234.687 242.55C232.987 245.25 231.737 248.05 230.937 250.95C230.637 251.55 230.437 251.9 230.337 252C230.137 252.2 228.937 252.3 226.737 252.3H223.437L222.987 251.85C222.687 251.55 222.537 251.15 222.537 250.65C222.937 248.05 224.337 244.9 226.737 241.2C226.837 241 226.937 240.8 227.037 240.6C231.437 233.7 237.087 229.5 243.987 228C244.387 228 244.737 227.95 245.037 227.85Z" fill="white"/>
<path d="M221.31 182.1L222.21 181.5H224.76H227.31L227.76 181.95C228.06 182.25 228.21 182.6 228.21 183C228.21 183.3 227.71 183.9 226.71 184.8C224.01 187.4 221.66 189.75 219.66 191.85C206.26 206.75 196.16 226.55 189.36 251.25C185.96 263.35 183.76 274.7 182.76 285.3C182.26 291.2 182.21 296.3 182.61 300.6C183.31 311.3 185.96 320.55 190.56 328.35C191.26 329.55 191.51 330.35 191.31 330.75C190.91 331.25 189.71 331.5 187.71 331.5H185.31L184.56 330.9C182.96 329.2 181.01 326.3 178.71 322.2C175.31 315.9 173.11 308.75 172.11 300.75C170.31 287.65 171.61 272.45 176.01 255.15C182.41 230.95 192.51 211.2 206.31 195.9C210.91 190.7 215.71 186.25 220.71 182.55C220.91 182.35 221.11 182.2 221.31 182.1Z" fill="white"/>
<path d="M82.15 192.3C82.35 192.1 95.3 192 121 192H159.4L160 192.45C160.3 192.85 160.45 193.25 160.45 193.65L155.5 228.6C155.2 228.9 155 229.1 154.9 229.2C154.7 229.4 153.6 229.5 151.6 229.5C149.5 229.5 148.3 229.4 148 229.2C147.5 228.9 147.35 227.55 147.55 225.15C148.15 221.05 148.45 217.55 148.45 214.65C148.45 210.35 147.9 207.4 146.8 205.8C145.7 204 143.7 202.65 140.8 201.75C137.5 200.85 130.9 200.4 121 200.4C113.8 200.5 110.05 200.75 109.75 201.15C109.65 201.25 108.05 207.2 104.95 219L100.6 236.7C100.6 236.8 102.8 236.85 107.2 236.85C112.7 236.75 116.25 236.4 117.85 235.8C120.85 234.8 123.05 232.75 124.45 229.65C125.15 228.15 125.9 225.9 126.7 222.9C127.2 221 127.6 219.95 127.9 219.75L128.35 219.3H131.35C133.75 219.3 135.15 219.65 135.55 220.35C135.65 220.75 134.05 227.7 130.75 241.2C127.25 254.9 125.45 261.8 125.35 261.9C125.15 262.5 123.8 262.8 121.3 262.8H118.3L117.7 262.35C117.3 261.85 117.35 260.45 117.85 258.15C118.55 254.95 118.9 252.45 118.9 250.65L118.6 248.7C118.1 247.3 116.85 246.35 114.85 245.85C113.15 245.45 109.6 245.25 104.2 245.25H98.5L93.55 264.9C90.25 278.2 88.6 284.9 88.6 285C88.6 285.3 88.9 285.45 89.5 285.45H111.85C119.95 284.85 126.2 282.7 130.6 279C134.9 275.3 139.35 267.3 143.95 255C144.55 253.4 145.05 252.4 145.45 252L145.9 251.55H149.05H152.2L152.65 252C153.05 252.4 153.05 253.2 152.65 254.4C152.15 256 149.75 262.3 145.45 273.3C140.25 286.7 137.65 293.35 137.65 293.25C137.45 293.65 135.9 293.85 133 293.85C129.8 293.95 117.85 294 97.15 294H57.7L57.1 293.55C56.8 293.05 56.65 292.65 56.65 292.35C56.65 290.75 57.15 288.8 58.15 286.5C59.35 285.9 61.25 285.6 63.85 285.6C68.35 285.5 70.9 285.3 71.5 285C72 284.7 72.4 284.1 72.7 283.2C73.4 281.3 76.85 267.75 83.05 242.55C89.95 214.95 93.35 201.15 93.25 201.15C92.75 200.65 89.7 200.4 84.1 200.4H81.1L80.5 199.95C80 199.35 80.05 197.95 80.65 195.75C81.25 193.65 81.75 192.5 82.15 192.3Z" fill="white"/>
</svg>
